<mxfile host="app.diagrams.net" modified="2023-10-18T04:32:32.437Z" agent="Mozilla/5.0 (Windows NT 10.0; Win64; x64; rv:109.0) Gecko/20100101 Firefox/118.0" etag="A6p1wuspYpI9op3Qw-m_" version="22.0.4" type="github">
  <diagram name="Page-1" id="anAUFlX6zJhQC-ie8a5u">
    <mxGraphModel dx="1050" dy="553" grid="1" gridSize="10" guides="1" tooltips="1" connect="1" arrows="1" fold="1" page="1" pageScale="1" pageWidth="850" pageHeight="1100" math="0" shadow="0">
      <root>
        <mxCell id="0" />
        <mxCell id="1" parent="0" />
        <mxCell id="sGrIHaXbeA38BbI2a5j0-1" value="" style="shape=or;whiteSpace=wrap;html=1;rounded=0;shadow=0;comic=0;strokeColor=#006E96;strokeWidth=3;fillColor=#00B0F0;gradientColor=none;rotation=-180;" vertex="1" parent="1">
          <mxGeometry x="330" y="160" width="25" height="55" as="geometry" />
        </mxCell>
      </root>
    </mxGraphModel>
  </diagram>
</mxfile>
